<?xml version="1.0" standalone="no"?>
<!DOCTYPE svg PUBLIC "-//W3C//DTD SVG 20010904//EN"
 "http://www.w3.org/TR/2001/REC-SVG-20010904/DTD/svg10.dtd">
<svg version="1.0" xmlns="http://www.w3.org/2000/svg"
 width="500.000000pt" height="500.000000pt" viewBox="0 0 500.000000 500.000000"
 preserveAspectRatio="xMidYMid meet">

<g transform="translate(0.000000,500.000000) scale(0.100000,-0.100000)"
fill="#000" stroke="none">
<path d="M4235 3410 c-16 -11 -46 -42 -65 -69 -36 -51 -50 -62 -50 -37 0 24
-50 56 -87 56 -47 0 -82 -23 -123 -80 -19 -27 -38 -49 -42 -50 -4 0 -13 10
-19 23 -16 29 -28 37 -63 37 -38 0 -166 -38 -166 -50 0 -5 13 -16 29 -25 16
-8 39 -27 51 -42 26 -33 25 -47 -16 -382 -14 -112 -23 -205 -21 -208 3 -2 40
4 83 15 l79 19 3 44 c1 24 12 132 23 239 21 193 39 268 77 313 22 25 50 21 58
-7 6 -24 -18 -264 -36 -361 -5 -27 -12 -80 -15 -117 -8 -79 -13 -76 95 -49 54
13 74 22 71 32 -7 22 -6 56 7 169 31 267 45 331 85 391 45 66 82 41 66 -46
-18 -104 -38 -372 -30 -406 18 -77 57 -111 132 -112 76 -1 137 52 168 146 10
30 10 41 1 53 -10 11 -16 12 -26 3 -8 -6 -14 -17 -14 -24 0 -17 -37 -63 -60
-75 -16 -9 -22 -5 -36 21 -14 29 -15 46 -4 163 6 72 16 155 21 185 14 85 11
141 -11 186 -32 65 -104 85 -165 45z"/>
<path d="M1883 3190 c-145 -29 -282 -192 -327 -390 -21 -92 -36 -279 -36 -460
0 -87 -4 -150 -9 -145 -4 6 -32 64 -62 130 -152 340 -222 440 -356 506 -59 30
-67 31 -160 27 -84 -3 -105 -8 -150 -32 -62 -34 -83 -55 -117 -120 -20 -38
-26 -63 -26 -114 0 -81 27 -134 88 -169 84 -50 191 -11 208 75 8 38 -5 42 -43
12 -38 -29 -76 -26 -107 10 -52 63 -43 143 23 203 73 66 156 58 246 -25 58
-53 98 -122 189 -333 177 -405 274 -527 450 -565 87 -19 202 16 281 85 36 32
38 34 12 25 -42 -15 -169 -12 -210 5 -46 19 -94 60 -113 97 -18 35 -19 146 -4
389 18 289 55 488 106 574 34 58 102 118 155 135 48 16 89 46 89 65 0 25 -46
31 -127 15z"/>
<path d="M3420 3194 c-95 -35 -170 -104 -219 -203 -42 -83 -63 -177 -65 -292
-1 -88 1 -100 29 -154 67 -129 205 -129 331 2 112 117 179 323 152 474 -12 70
-32 106 -83 144 -32 25 -112 41 -145 29z m54 -71 c2 -10 7 -63 11 -118 12
-190 -45 -427 -110 -457 -33 -15 -58 8 -76 69 -23 85 23 380 72 459 36 59 92
84 103 47z"/>
<path d="M2920 3079 c-64 -29 -105 -63 -151 -125 -72 -97 -102 -206 -102 -360
0 -81 5 -110 22 -150 40 -90 88 -124 176 -124 70 0 125 27 182 88 72 76 99
155 68 196 -13 17 -15 15 -36 -30 -45 -99 -95 -144 -158 -144 -41 0 -77 46
-91 116 -20 95 22 334 73 419 24 40 79 77 101 69 17 -6 22 -24 7 -24 -11 0
-31 -79 -31 -124 0 -81 77 -88 128 -11 17 27 22 49 22 99 0 57 -3 67 -29 95
-26 27 -35 31 -83 31 -31 0 -71 -9 -98 -21z"/>
<path d="M2640 3011 c-49 -13 -66 -22 -69 -36 -2 -11 -28 -71 -57 -134 -47
-100 -56 -113 -69 -100 -12 12 -38 58 -92 161 l-14 26 -72 -20 c-40 -11 -88
-27 -107 -35 l-35 -15 25 -16 c51 -35 71 -60 139 -178 l69 -121 -77 -154 c-42
-85 -95 -185 -116 -223 -23 -41 -33 -67 -24 -64 8 3 39 12 69 21 50 15 57 20
69 54 12 34 109 242 117 252 8 10 44 -34 73 -89 18 -33 44 -74 58 -91 25 -29
28 -30 92 -26 36 2 88 10 114 18 l48 14 -52 35 c-52 35 -97 100 -191 270 l-35
66 24 49 c47 94 136 250 170 296 48 68 49 68 -57 40z"/>
<path d="M1980 2823 c-84 -28 -152 -89 -192 -173 -50 -105 -77 -225 -78 -349
0 -146 28 -220 100 -258 24 -13 61 -23 84 -23 93 0 211 95 269 218 61 130 28
183 -38 60 -21 -40 -48 -86 -59 -101 -37 -50 -101 -71 -146 -47 -27 14 -52 88
-48 144 l3 48 72 30 c57 23 84 43 131 92 73 79 92 118 93 196 1 49 -4 68 -24
99 -37 56 -110 84 -167 64z m46 -99 c10 -41 -2 -147 -21 -184 -22 -44 -62 -88
-97 -106 -28 -14 -28 -14 -28 18 0 33 18 129 39 204 15 55 47 94 77 94 17 0
25 -7 30 -26z"/>
<path d="M1077 2378 c-8 -314 -34 -410 -135 -499 -66 -58 -130 -64 -182 -17
-39 36 -50 63 -50 125 2 129 88 200 196 161 48 -17 66 -6 52 32 -16 47 -61 70
-136 70 -101 0 -165 -43 -217 -148 -24 -48 -27 -63 -23 -136 3 -72 7 -87 36
-133 49 -76 117 -116 204 -121 61 -4 76 -1 133 27 90 44 157 108 193 183 43
92 51 136 53 308 2 154 1 156 -30 230 -31 74 -70 140 -82 140 -3 0 -9 -100
-12 -222z"/>
<path d="M3800 2476 c-112 -32 -109 -31 -590 -268 -228 -113 -431 -211 -450
-218 -34 -13 -84 -35 -185 -80 -78 -36 -351 -126 -476 -158 -247 -64 -264 -66
-444 -66 -193 1 -271 15 -373 66 l-64 32 -18 -24 c-18 -24 -18 -25 1 -47 35
-36 130 -81 234 -109 93 -25 114 -27 300 -27 207 0 308 11 479 53 101 25 320
95 400 127 213 86 517 244 821 426 295 177 498 246 594 202 52 -23 87 -85 77
-137 -10 -56 -58 -113 -111 -133 -65 -26 -113 -10 -180 61 -58 60 -75 58 -75
-8 0 -79 55 -136 154 -162 67 -18 101 -13 177 25 62 31 121 90 144 145 18 43
19 135 1 182 -15 42 -70 99 -116 119 -19 8 -75 17 -125 19 -73 3 -106 -1 -175
-20z"/>
<path d="M3557 2175 c-32 -19 -60 -35 -63 -35 -3 0 -60 -33 -127 -73 -137 -82
-208 -122 -382 -213 -66 -34 -121 -68 -124 -75 -4 -12 0 -12 81 9 108 28 569
287 633 356 72 77 68 83 -18 31z"/>
</g>
</svg>
